<mxfile host="app.diagrams.net" modified="2022-09-15T07:12:14.580Z" agent="5.0 (Macintosh; Intel Mac OS X 10_15_7) AppleWebKit/537.36 (KHTML, like Gecko) Chrome/105.0.0.0 Safari/537.36" etag="jxvXlmzkrqGmsJPGz-C7" version="20.3.0" type="github">
  <diagram id="nccRrh5qaUdnJzX0Y5Ph" name="第 1 页">
    <mxGraphModel dx="3533" dy="1455" grid="1" gridSize="10" guides="1" tooltips="1" connect="1" arrows="1" fold="1" page="1" pageScale="1" pageWidth="827" pageHeight="1169" math="0" shadow="0">
      <root>
        <mxCell id="0" />
        <mxCell id="1" parent="0" />
        <mxCell id="PCyOf4dP7XEUfUKsyJfU-2" value="" style="rounded=0;whiteSpace=wrap;html=1;fillColor=#1ba1e2;fontColor=#ffffff;strokeColor=#006EAF;" vertex="1" parent="1">
          <mxGeometry x="-380" y="140" width="1820" height="1250" as="geometry" />
        </mxCell>
        <mxCell id="PCyOf4dP7XEUfUKsyJfU-32" value="" style="rounded=1;whiteSpace=wrap;html=1;labelBackgroundColor=none;fontSize=32;fillColor=#ffcccc;strokeColor=#36393d;" vertex="1" parent="1">
          <mxGeometry x="-280" y="190" width="180" height="1170" as="geometry" />
        </mxCell>
        <mxCell id="PCyOf4dP7XEUfUKsyJfU-3" value="&lt;font style=&quot;font-size: 22px;&quot;&gt;SDK&lt;/font&gt;" style="rounded=1;whiteSpace=wrap;html=1;fillColor=#d5e8d4;strokeColor=#82b366;" vertex="1" parent="1">
          <mxGeometry x="-85" y="330" width="1080" height="80" as="geometry" />
        </mxCell>
        <mxCell id="PCyOf4dP7XEUfUKsyJfU-4" value="" style="rounded=1;whiteSpace=wrap;html=1;fillColor=#dae8fc;strokeColor=#6c8ebf;" vertex="1" parent="1">
          <mxGeometry x="-85" y="190" width="1080" height="110" as="geometry" />
        </mxCell>
        <mxCell id="PCyOf4dP7XEUfUKsyJfU-5" value="Android demo" style="rounded=0;whiteSpace=wrap;html=1;fontSize=22;" vertex="1" parent="1">
          <mxGeometry y="215" width="200" height="60" as="geometry" />
        </mxCell>
        <mxCell id="PCyOf4dP7XEUfUKsyJfU-6" value="Mac terminal demo" style="rounded=0;whiteSpace=wrap;html=1;fontSize=22;" vertex="1" parent="1">
          <mxGeometry x="355" y="215" width="200" height="60" as="geometry" />
        </mxCell>
        <mxCell id="PCyOf4dP7XEUfUKsyJfU-7" value="Linux demo" style="rounded=0;whiteSpace=wrap;html=1;fontSize=22;" vertex="1" parent="1">
          <mxGeometry x="710" y="215" width="200" height="60" as="geometry" />
        </mxCell>
        <mxCell id="PCyOf4dP7XEUfUKsyJfU-8" value="&lt;font style=&quot;font-size: 22px;&quot;&gt;Media Center&amp;nbsp;&lt;/font&gt;" style="rounded=1;whiteSpace=wrap;html=1;fillColor=#fff2cc;strokeColor=#d6b656;" vertex="1" parent="1">
          <mxGeometry x="-85" y="450" width="1080" height="90" as="geometry" />
        </mxCell>
        <mxCell id="PCyOf4dP7XEUfUKsyJfU-9" value="" style="rounded=1;whiteSpace=wrap;html=1;fillColor=#a20025;fontColor=#ffffff;strokeColor=#6F0000;" vertex="1" parent="1">
          <mxGeometry x="1180" y="460" width="180" height="480" as="geometry" />
        </mxCell>
        <mxCell id="PCyOf4dP7XEUfUKsyJfU-10" value="Redis" style="rounded=0;whiteSpace=wrap;html=1;fontSize=22;fillColor=#60a917;fontColor=#ffffff;strokeColor=#2D7600;" vertex="1" parent="1">
          <mxGeometry x="1195" y="555" width="150" height="60" as="geometry" />
        </mxCell>
        <mxCell id="PCyOf4dP7XEUfUKsyJfU-11" value="Mysql" style="rounded=0;whiteSpace=wrap;html=1;fontSize=22;fillColor=#60a917;fontColor=#ffffff;strokeColor=#2D7600;" vertex="1" parent="1">
          <mxGeometry x="1195" y="780" width="150" height="60" as="geometry" />
        </mxCell>
        <mxCell id="PCyOf4dP7XEUfUKsyJfU-13" value="" style="rounded=1;whiteSpace=wrap;html=1;fillColor=#f5f5f5;fontColor=#333333;strokeColor=#666666;" vertex="1" parent="1">
          <mxGeometry x="-85" y="580" width="1080" height="210" as="geometry" />
        </mxCell>
        <mxCell id="PCyOf4dP7XEUfUKsyJfU-14" value="&lt;span style=&quot;color: rgb(32, 33, 36); font-family: arial, sans-serif; text-align: start;&quot;&gt;&lt;font style=&quot;font-size: 22px;&quot;&gt;Dispatch&lt;/font&gt;&lt;/span&gt;" style="rounded=0;whiteSpace=wrap;html=1;fontSize=22;fillColor=#f0a30a;fontColor=#000000;strokeColor=#BD7000;" vertex="1" parent="1">
          <mxGeometry x="15" y="630" width="340" height="110" as="geometry" />
        </mxCell>
        <mxCell id="PCyOf4dP7XEUfUKsyJfU-15" value="&lt;span style=&quot;color: rgb(32, 33, 36); font-family: arial, sans-serif; text-align: start;&quot;&gt;&lt;font style=&quot;font-size: 22px;&quot;&gt;Room Manager&lt;/font&gt;&lt;/span&gt;" style="rounded=0;whiteSpace=wrap;html=1;fontSize=22;fillColor=#d80073;fontColor=#ffffff;strokeColor=#A50040;" vertex="1" parent="1">
          <mxGeometry x="555" y="630" width="340" height="110" as="geometry" />
        </mxCell>
        <mxCell id="PCyOf4dP7XEUfUKsyJfU-16" value="&lt;span style=&quot;font-size: 22px;&quot;&gt;BRTC&amp;nbsp;&lt;/span&gt;&lt;span style=&quot;color: rgb(77, 81, 86); font-family: arial, sans-serif; text-align: left;&quot;&gt;&lt;font style=&quot;font-size: 22px;&quot;&gt;Cascade&lt;/font&gt;&lt;/span&gt;" style="rounded=1;whiteSpace=wrap;html=1;fillColor=#f8cecc;strokeColor=#b85450;" vertex="1" parent="1">
          <mxGeometry x="-85" y="840" width="1080" height="100" as="geometry" />
        </mxCell>
        <mxCell id="PCyOf4dP7XEUfUKsyJfU-18" value="&lt;span style=&quot;font-size: 22px;&quot;&gt;BRTC SFU&lt;/span&gt;" style="rounded=1;whiteSpace=wrap;html=1;fillColor=#e1d5e7;strokeColor=#9673a6;" vertex="1" parent="1">
          <mxGeometry x="500" y="1060" width="495" height="300" as="geometry" />
        </mxCell>
        <mxCell id="PCyOf4dP7XEUfUKsyJfU-20" value="&lt;font style=&quot;font-size: 22px;&quot;&gt;BRTC SFU&lt;/font&gt;" style="rounded=1;whiteSpace=wrap;html=1;fillColor=#e1d5e7;strokeColor=#9673a6;" vertex="1" parent="1">
          <mxGeometry x="-85" y="1060" width="495" height="300" as="geometry" />
        </mxCell>
        <mxCell id="PCyOf4dP7XEUfUKsyJfU-21" value="" style="shape=flexArrow;endArrow=classic;startArrow=classic;html=1;rounded=0;fontSize=22;fillColor=#fa6800;strokeColor=#C73500;" edge="1" parent="1">
          <mxGeometry width="100" height="100" relative="1" as="geometry">
            <mxPoint x="1040" y="684.5" as="sourcePoint" />
            <mxPoint x="1140" y="684.5" as="targetPoint" />
          </mxGeometry>
        </mxCell>
        <mxCell id="PCyOf4dP7XEUfUKsyJfU-23" value="" style="shape=flexArrow;endArrow=classic;startArrow=classic;html=1;rounded=0;fontSize=22;fillColor=#fa6800;strokeColor=#C73500;" edge="1" parent="1">
          <mxGeometry width="100" height="100" relative="1" as="geometry">
            <mxPoint x="162" y="1044.5" as="sourcePoint" />
            <mxPoint x="162" y="960" as="targetPoint" />
          </mxGeometry>
        </mxCell>
        <mxCell id="PCyOf4dP7XEUfUKsyJfU-24" value="" style="shape=flexArrow;endArrow=classic;startArrow=classic;html=1;rounded=0;fontSize=22;fillColor=#fa6800;strokeColor=#C73500;" edge="1" parent="1">
          <mxGeometry width="100" height="100" relative="1" as="geometry">
            <mxPoint x="747" y="1044.5" as="sourcePoint" />
            <mxPoint x="747" y="960" as="targetPoint" />
          </mxGeometry>
        </mxCell>
        <mxCell id="PCyOf4dP7XEUfUKsyJfU-26" value="&lt;font style=&quot;font-size: 32px;&quot;&gt;用户层&lt;/font&gt;" style="text;html=1;resizable=0;autosize=1;align=center;verticalAlign=middle;points=[];fillColor=none;strokeColor=none;rounded=0;labelBackgroundColor=none;fontSize=22;" vertex="1" parent="1">
          <mxGeometry x="-250" y="220" width="120" height="50" as="geometry" />
        </mxCell>
        <mxCell id="PCyOf4dP7XEUfUKsyJfU-27" value="&lt;span style=&quot;font-size: 32px;&quot;&gt;工具包&lt;/span&gt;" style="text;html=1;resizable=0;autosize=1;align=center;verticalAlign=middle;points=[];fillColor=none;strokeColor=none;rounded=0;labelBackgroundColor=none;fontSize=22;" vertex="1" parent="1">
          <mxGeometry x="-250" y="345" width="120" height="50" as="geometry" />
        </mxCell>
        <mxCell id="PCyOf4dP7XEUfUKsyJfU-28" value="&lt;span style=&quot;font-size: 32px;&quot;&gt;接入层&lt;/span&gt;" style="text;html=1;resizable=0;autosize=1;align=center;verticalAlign=middle;points=[];fillColor=none;strokeColor=none;rounded=0;labelBackgroundColor=none;fontSize=22;" vertex="1" parent="1">
          <mxGeometry x="-250" y="470" width="120" height="50" as="geometry" />
        </mxCell>
        <mxCell id="PCyOf4dP7XEUfUKsyJfU-29" value="&lt;span style=&quot;font-size: 32px;&quot;&gt;调度层&lt;/span&gt;" style="text;html=1;resizable=0;autosize=1;align=center;verticalAlign=middle;points=[];fillColor=none;strokeColor=none;rounded=0;labelBackgroundColor=none;fontSize=22;" vertex="1" parent="1">
          <mxGeometry x="-250" y="660" width="120" height="50" as="geometry" />
        </mxCell>
        <mxCell id="PCyOf4dP7XEUfUKsyJfU-30" value="&lt;span style=&quot;font-size: 32px;&quot;&gt;级联层&lt;/span&gt;" style="text;html=1;resizable=0;autosize=1;align=center;verticalAlign=middle;points=[];fillColor=none;strokeColor=none;rounded=0;labelBackgroundColor=none;fontSize=22;" vertex="1" parent="1">
          <mxGeometry x="-250" y="865" width="120" height="50" as="geometry" />
        </mxCell>
        <mxCell id="PCyOf4dP7XEUfUKsyJfU-31" value="&lt;span style=&quot;font-size: 32px;&quot;&gt;媒体层&lt;/span&gt;" style="text;html=1;resizable=0;autosize=1;align=center;verticalAlign=middle;points=[];fillColor=none;strokeColor=none;rounded=0;labelBackgroundColor=none;fontSize=22;" vertex="1" parent="1">
          <mxGeometry x="-250" y="1185" width="120" height="50" as="geometry" />
        </mxCell>
      </root>
    </mxGraphModel>
  </diagram>
</mxfile>
